<?xml version="1.0" encoding="UTF-8" standalone="no"?>
<svg
   width="29.999998"
   height="29.999998"
   viewBox="0 0 29.999998 29.999998"
   fill="none"
   version="1.1"
   id="svg4"
   sodipodi:docname="logo.svg"
   inkscape:export-filename="logowotext.png"
   inkscape:export-xdpi="96"
   inkscape:export-ydpi="96"
   xmlns:inkscape="http://www.inkscape.org/namespaces/inkscape"
   xmlns:sodipodi="http://sodipodi.sourceforge.net/DTD/sodipodi-0.dtd"
   xmlns="http://www.w3.org/2000/svg"
   xmlns:svg="http://www.w3.org/2000/svg">
  <sodipodi:namedview
     id="namedview4"
     pagecolor="#ffffff"
     bordercolor="#000000"
     borderopacity="0.25"
     inkscape:showpageshadow="2"
     inkscape:pageopacity="0.0"
     inkscape:pagecheckerboard="0"
     inkscape:deskcolor="#d1d1d1"
     showgrid="false"
     inkscape:export-bgcolor="#05050500" />
  <path
     fill-rule="evenodd"
     clip-rule="evenodd"
     d="M 27.8333,15 C 27.8333,22.0877 22.0877,27.8333 15,27.8333 7.9123402,27.8333 2.1666599,22.0877 2.1666599,15 2.1666599,7.9123 7.9123402,2.1666601 15,2.1666601 22.0877,2.1666601 27.8333,7.9123 27.8333,15 Z M 30,15 C 30,23.2843 23.2843,30 15,30 6.7157302,30 -1.3187866e-7,23.2843 -1.3187866e-7,15 -1.3187866e-7,6.71573 6.7157302,7.4273677e-8 15,7.4273677e-8 23.2843,7.4273677e-8 30,6.71573 30,15 Z M 23.2759,8.2759 c 0,0.857 -0.6947,1.5517 -1.5517,1.5517 -0.857,0 -1.5517,-0.6947 -1.5517,-1.5517 0,-0.857 0.6947,-1.55172 1.5517,-1.55172 0.857,0 1.5517,0.69472 1.5517,1.55172 z m -12.788,7.9331 c 0.6677,2.4919 3.2291,3.9707 5.721,3.303 2.4919,-0.6677 3.9707,-3.2291 3.303,-5.721 -0.6677,-2.4919 -3.2291,-3.9707 -5.721,-3.303 -2.4919,0.6677 -3.9707498,3.2291 -3.303,5.721 z m -2.0928698,0.5608 c 0.97741,3.6477 4.7268698,5.8125 8.3745698,4.8351 3.6478,-0.9775 5.8125,-4.7269 4.8351,-8.3747 C 20.6273,9.5825 16.8779,7.4177 13.2301,8.3952 9.5823602,9.3726 7.4176202,13.122 8.3950302,16.7698 Z"
     fill="url(#paint0_linear_120_1360)"
     id="path1"
     style="mix-blend-mode:normal;fill:url(#paint0_linear_120_1360)" />
  <defs
     id="defs4">
    <linearGradient
       id="paint0_linear_120_1360"
       x1="15"
       y1="3"
       x2="15"
       y2="33"
       gradientUnits="userSpaceOnUse"
       gradientTransform="translate(-1.3187866e-7,-2.9999999)">
      <stop
         stop-color="#877EFF"
         id="stop2" />
      <stop
         offset="0.461458"
         stop-color="#685DFF"
         id="stop3" />
      <stop
         offset="1"
         stop-color="#3121FF"
         id="stop4" />
    </linearGradient>
  </defs>
</svg>
