<?xml version="1.0" encoding="UTF-8" standalone="no"?>
<svg
   width="171"
   height="36"
   viewBox="0 0 171 36"
   fill="none"
   version="1.1"
   id="svg4"
   xmlns="http://www.w3.org/2000/svg"
   xmlns:svg="http://www.w3.org/2000/svg">
  <path
     fill-rule="evenodd"
     clip-rule="evenodd"
     d="M 27.8333,18 C 27.8333,25.0877 22.0877,30.8333 15,30.8333 7.91234,30.8333 2.16666,25.0877 2.16666,18 2.16666,10.9123 7.91234,5.16666 15,5.16666 22.0877,5.16666 27.8333,10.9123 27.8333,18 Z M 30,18 C 30,26.2843 23.2843,33 15,33 6.71573,33 0,26.2843 0,18 0,9.71573 6.71573,3 15,3 23.2843,3 30,9.71573 30,18 Z m -6.7241,-6.7241 c 0,0.857 -0.6947,1.5517 -1.5517,1.5517 -0.857,0 -1.5517,-0.6947 -1.5517,-1.5517 0,-0.857 0.6947,-1.55172 1.5517,-1.55172 0.857,0 1.5517,0.69472 1.5517,1.55172 z m -12.788,7.9331 c 0.6677,2.4919 3.2291,3.9707 5.721,3.303 2.4919,-0.6677 3.9707,-3.2291 3.303,-5.721 -0.6677,-2.4919 -3.2291,-3.9707 -5.721,-3.303 -2.4919,0.6677 -3.97075,3.2291 -3.303,5.721 z m -2.09287,0.5608 c 0.97741,3.6477 4.72687,5.8125 8.37457,4.8351 3.6478,-0.9775 5.8125,-4.7269 4.8351,-8.3747 -0.9774,-3.6477 -4.7268,-5.8125 -8.3746,-4.835 -3.64774,0.9774 -5.81248,4.7268 -4.83507,8.3746 z"
     fill="url(#paint0_linear_120_1360)"
     id="path1"
     style="mix-blend-mode:normal;fill:url(#paint0_linear_120_1360)" />
  <defs
     id="defs4">
    <linearGradient
       id="paint0_linear_120_1360"
       x1="15"
       y1="3"
       x2="15"
       y2="33"
       gradientUnits="userSpaceOnUse">
      <stop
         stop-color="#877EFF"
         id="stop2" />
      <stop
         offset="0.461458"
         stop-color="#685DFF"
         id="stop3" />
      <stop
         offset="1"
         stop-color="#3121FF"
         id="stop4" />
    </linearGradient>
  </defs>
  <path
     id="text4"
     style="font-style:normal;font-variant:normal;font-weight:bold;font-stretch:normal;font-size:25.3333px;font-family:Bahnschrift;-inkscape-font-specification:'Bahnschrift Bold';letter-spacing:-1px;opacity:1;mix-blend-mode:hard-light;fill:#ffffff;stroke-width:0.945031"
     d="m 43.628906,9.2910156 c -1.445374,0 -2.678954,0.210845 -3.699218,0.6347657 -1.020264,0.4159217 -1.798346,1.0243677 -2.333985,1.8242187 -0.535639,0.79985 -0.802734,1.762836 -0.802734,2.890625 v 0.01172 c 0,1.271762 0.283868,2.257255 0.853515,2.953125 0.569648,0.687872 1.263867,1.171225 2.080078,1.451171 0.816212,0.27195 1.844616,0.499629 3.085939,0.683595 l 0.281249,0.03516 c 0.02551,0.008 0.0455,0.01368 0.0625,0.01368 0.02551,0 0.05066,0.0037 0.07617,0.01172 0.705683,0.103981 1.283758,0.219681 1.734375,0.347656 0.450616,0.127976 0.817084,0.327661 1.097656,0.59961 0.280573,0.271949 0.421875,0.639602 0.421875,1.103516 v 0.01172 c 0,0.663876 -0.316149,1.180897 -0.945312,1.548829 -0.629164,0.359932 -1.513049,0.539061 -2.652344,0.539061 -0.986255,0 -1.94757,-0.147414 -2.882812,-0.443359 -0.935243,-0.303942 -1.758471,-0.731305 -2.472657,-1.283203 l -1.621093,2.710938 c 0.586652,0.455914 1.250542,0.847842 1.990234,1.175781 0.748194,0.319941 1.543047,0.564453 2.384765,0.732422 0.850221,0.167969 1.717334,0.251953 2.601563,0.251953 1.487886,0 2.76018,-0.209077 3.814453,-0.625 1.062776,-0.415922 1.869232,-1.018695 2.421875,-1.810547 0.552643,-0.791852 0.830078,-1.743676 0.830078,-2.855469 v -0.02539 c 0,-1.183779 -0.263879,-2.115049 -0.791015,-2.794922 -0.527137,-0.687872 -1.185858,-1.184338 -1.976563,-1.488281 -0.782203,-0.311942 -1.76029,-0.575056 -2.933594,-0.791016 l -0.154296,-0.02343 c -0.04251,-0.01599 -0.08766,-0.02911 -0.138673,-0.03711 -0.03401,-0.008 -0.06951,-0.01172 -0.103515,-0.01172 l -0.101564,-0.02343 C 42.939645,16.457413 42.306083,16.313718 41.855466,16.177744 41.404849,16.04177 41.02678,15.828972 40.7207,15.541026 40.414621,15.245081 40.261715,14.845712 40.261715,14.341806 v -0.01172 c 0,-0.599888 0.294208,-1.06464 0.88086,-1.392579 0.586652,-0.335936 1.41505,-0.503905 2.486328,-0.503905 0.714185,0 1.458721,0.128813 2.232423,0.384766 0.782202,0.255951 1.529954,0.614211 2.24414,1.078124 l 1.478516,-2.783203 C 48.98883,10.729353 48.360438,10.402808 47.697266,10.13086 47.034094,9.8589107 46.353431,9.6498325 45.65625,9.5058594 44.967572,9.3618864 44.292078,9.2910156 43.628906,9.2910156 Z m 54.656251,0 c -1.445375,0 -2.678955,0.210845 -3.699219,0.6347657 -1.020265,0.4159217 -1.798346,1.0243677 -2.333984,1.8242187 -0.535639,0.79985 -0.802735,1.762836 -0.802735,2.890625 v 0.01172 c 0,1.271762 0.283868,2.257255 0.853516,2.953125 0.569647,0.687872 1.263866,1.171225 2.080078,1.451171 0.816211,0.27195 1.844616,0.499629 3.085937,0.683595 l 0.28125,0.03516 c 0.02551,0.008 0.0455,0.01368 0.0625,0.01368 0.02551,0 0.05066,0.0037 0.07617,0.01172 0.705683,0.103981 1.283758,0.219681 1.734375,0.347656 0.450614,0.127976 0.817084,0.327661 1.097654,0.59961 0.28057,0.271949 0.41992,0.639602 0.41992,1.103516 v 0.01172 c 0,0.663876 -0.31419,1.180897 -0.94335,1.548829 -0.629168,0.359932 -1.513053,0.539061 -2.652349,0.539061 -0.986256,0 -1.94757,-0.147414 -2.882813,-0.443359 -0.935242,-0.303942 -1.758471,-0.731305 -2.472655,-1.283203 l -1.621095,2.710938 c 0.586652,0.455914 1.250543,0.847842 1.990235,1.175781 0.748193,0.319941 1.543048,0.564453 2.384766,0.732422 0.85022,0.167969 1.717333,0.251953 2.601562,0.251953 1.487885,0 2.758229,-0.209077 3.812499,-0.625 1.06278,-0.415922 1.87119,-1.018695 2.42383,-1.810547 0.55264,-0.791852 0.82812,-1.743676 0.82812,-2.855469 v -0.02539 c 0,-1.183779 -0.26192,-2.115049 -0.78906,-2.794922 -0.52713,-0.687872 -1.18586,-1.184338 -1.97656,-1.488281 -0.7822,-0.311942 -1.76029,-0.575056 -2.933594,-0.791016 l -0.154298,-0.02343 c -0.04251,-0.01599 -0.08766,-0.02911 -0.138671,-0.03711 -0.03401,-0.008 -0.06951,-0.01172 -0.103516,-0.01172 l -0.101565,-0.02343 c -0.816211,-0.151972 -1.449773,-0.295667 -1.90039,-0.431641 -0.450617,-0.135974 -0.828687,-0.348772 -1.134766,-0.636718 -0.306079,-0.295945 -0.458984,-0.695314 -0.458984,-1.19922 v -0.01172 c 0,-0.599888 0.292254,-1.06464 0.878906,-1.392579 0.586652,-0.335936 1.417004,-0.503905 2.488281,-0.503905 0.714186,0 1.456769,0.128813 2.230467,0.384766 0.78221,0.255951 1.53191,0.614211 2.2461,1.078124 l 1.47851,-2.783203 c -0.59515,-0.38394 -1.22354,-0.710485 -1.88671,-0.982433 C 101.69034,9.8589107 101.00968,9.6498325 100.3125,9.5058594 99.623821,9.3618864 98.948329,9.2910156 98.285157,9.2910156 Z M 119.68945,9.4707032 V 26.914063 h 3.49414 v -7.521485 c 0,-0.615885 0.17485,-1.091797 0.52344,-1.427734 0.35709,-0.343936 0.85774,-0.515625 1.5039,-0.515625 0.68019,0 1.20278,0.167969 1.56837,0.503906 0.37409,0.335937 0.56055,0.808129 0.56055,1.416016 v 7.544922 h 3.49609 v -7.558594 c 0,-1.615698 -0.38324,-2.862352 -1.14844,-3.742188 -0.7652,-0.887834 -1.84587,-1.332031 -3.24024,-1.332031 -0.84171,0 -1.54236,0.195964 -2.10351,0.587891 -0.43993,0.311993 -0.8172,0.783395 -1.16016,1.34375 V 9.4707032 Z M 58.615235,14.28125 c -0.841718,0 -1.54237,0.195964 -2.103516,0.587891 -0.439931,0.311993 -0.817206,0.783395 -1.160157,1.34375 v -1.751954 h -3.49414 v 12.453126 h 3.49414 v -7.521485 c 0,-0.615885 0.172895,-1.091797 0.521485,-1.427734 0.357092,-0.343936 0.859692,-0.515625 1.505859,-0.515625 0.680177,0 1.202765,0.167969 1.56836,0.503906 0.374097,0.335937 0.560547,0.808129 0.560547,1.416016 v 7.544922 h 3.496093 v -7.558594 c 0,-1.615698 -0.383238,-2.862352 -1.148437,-3.742188 -0.765198,-0.887834 -1.845873,-1.332031 -3.240234,-1.332031 z m 11.787109,0 c -1.054273,0 -2.015587,0.160529 -2.882812,0.480468 -0.867225,0.311942 -1.564661,0.750466 -2.091798,1.31836 l 2.16797,2.003907 c 0.374096,-0.27195 0.804436,-0.482794 1.289062,-0.634766 0.484625,-0.151972 0.973669,-0.228516 1.466797,-0.228516 0.748193,0 1.326269,0.156808 1.734374,0.46875 0.408107,0.311942 0.611328,0.754186 0.611328,1.330078 v 0.529297 h -3.201171 c -1.572908,0 -2.754217,0.307943 -3.544922,0.923829 -0.782203,0.615884 -1.173828,1.539714 -1.173828,2.771484 0,1.295757 0.349694,2.262463 1.046875,2.902344 0.705683,0.631881 1.767632,0.949218 3.1875,0.949218 0.646167,0 1.257787,-0.07655 1.835937,-0.228516 0.586652,-0.159969 1.072479,-0.397042 1.455078,-0.708984 0.168179,-0.134138 0.289239,-0.286031 0.394531,-0.445312 v 1.201172 h 3.175782 V 18.91211 c 0,-0.975818 -0.216778,-1.808223 -0.65039,-2.496094 -0.425111,-0.69587 -1.045117,-1.222099 -1.861329,-1.582031 -0.816211,-0.367932 -1.802684,-0.552735 -2.958984,-0.552735 z m 14.451172,0 c -0.705683,0 -1.352802,0.199684 -1.939453,0.599609 -0.444545,0.301356 -0.820916,0.70511 -1.134766,1.205078 v -1.625 h -3.494141 v 17.517579 h 3.494141 v -6.648437 c 0.264642,0.501838 0.619084,0.909289 1.072266,1.21289 0.561145,0.367931 1.228252,0.552734 2.001953,0.552734 0.935242,0 1.735266,-0.212798 2.398437,-0.636719 0.671675,-0.42392 1.180707,-1.036086 1.529297,-1.835937 0.34859,-0.807849 0.523438,-1.780228 0.523438,-2.916016 v -1.990234 c 0,-1.143786 -0.174848,-2.123605 -0.523438,-2.939453 -0.34859,-0.815847 -0.857622,-1.435455 -1.529297,-1.859375 -0.663171,-0.423921 -1.463195,-0.636719 -2.398437,-0.636719 z m 28.226564,0 c -0.70568,0 -1.35085,0.199684 -1.9375,0.599609 -0.44347,0.300631 -0.82136,0.702884 -1.13476,1.201172 v -1.621094 h -3.49611 v 17.517579 h 3.49611 v -6.646485 c 0.26455,0.501048 0.61764,0.90768 1.0703,1.210938 0.56115,0.367931 1.22826,0.552734 2.00196,0.552734 0.93524,0 1.73527,-0.212798 2.39843,-0.636719 0.67168,-0.42392 1.18071,-1.036086 1.5293,-1.835937 0.3486,-0.807849 0.52345,-1.780228 0.52345,-2.916016 v -1.990234 c 0,-1.143786 -0.17485,-2.123605 -0.52345,-2.939453 -0.34859,-0.815847 -0.85762,-1.435455 -1.5293,-1.859375 -0.66316,-0.423921 -1.46319,-0.636719 -2.39843,-0.636719 z m 25.61328,0 c -1.23282,0 -2.28638,0.227679 -3.16211,0.683594 -0.86723,0.455915 -1.53111,1.12035 -1.99024,1.992188 -0.45061,0.871836 -0.67577,1.922527 -0.67577,3.154296 v 1.404297 c 0,1.17578 0.23872,2.183595 0.71484,3.023437 0.47613,0.831845 1.16322,1.468286 2.06445,1.908204 0.90974,0.431918 2.00201,0.648437 3.27734,0.648437 0.87573,0 1.7448,-0.160529 2.60352,-0.480468 0.85873,-0.327939 1.63163,-0.78897 2.32031,-1.38086 l -2.2832,-1.90625 c -0.37409,0.287946 -0.79088,0.511905 -1.25,0.671876 -0.45912,0.15197 -0.923,0.226562 -1.39063,0.226562 -0.90973,0 -1.61877,-0.231399 -2.1289,-0.695313 -0.40399,-0.373615 -0.63621,-0.877371 -0.71485,-1.5 h 8.11133 v -0.814453 c 0,-1.463726 -0.21678,-2.712334 -0.65039,-3.744141 -0.4251,-1.039805 -1.05028,-1.831101 -1.875,-2.375 -0.82471,-0.543898 -1.8144,-0.816406 -2.9707,-0.816406 z m 14.34961,0 c -0.69719,0 -1.33913,0.207125 -1.92578,0.623047 -0.44704,0.315415 -0.82848,0.735691 -1.14844,1.251953 v -1.695313 h -3.75 v 12.453126 h 3.75 v -7.041016 c 0,-0.759858 0.19162,-1.353423 0.57422,-1.777344 0.3911,-0.431919 0.93885,-0.646484 1.64453,-0.646484 0.32308,0 0.60891,0.03916 0.85547,0.119141 0.24657,0.07998 0.45495,0.199405 0.625,0.359375 l 2.04102,-2.673829 c -0.33159,-0.319939 -0.72322,-0.560732 -1.17383,-0.720703 -0.44212,-0.167968 -0.93955,-0.251953 -1.49219,-0.251953 z m 8.48242,0 c -1.23281,0 -2.28638,0.227679 -3.16211,0.683594 -0.86723,0.455915 -1.53111,1.12035 -1.99023,1.992188 -0.45062,0.871836 -0.67578,1.922527 -0.67578,3.154296 v 1.404297 c 0,1.17578 0.23872,2.183595 0.71484,3.023437 0.47612,0.831845 1.16518,1.468286 2.06641,1.908204 0.90973,0.431918 2.00201,0.648437 3.27734,0.648437 0.87573,0 1.74284,-0.160529 2.60156,-0.480468 0.85873,-0.327939 1.63164,-0.78897 2.32031,-1.38086 l -2.2832,-1.90625 c -0.37409,0.287946 -0.79088,0.511905 -1.24999,0.671876 -0.45912,0.15197 -0.92105,0.226562 -1.38868,0.226562 -0.90974,0 -1.62073,-0.231399 -2.13086,-0.695313 -0.40399,-0.373615 -0.6362,-0.877371 -0.71484,-1.5 h 8.11132 v -0.814453 c 0,-1.463726 -0.21677,-2.712334 -0.65039,-3.744141 -0.4251,-1.039805 -1.04833,-1.831101 -1.87304,-2.375 -0.82471,-0.543898 -1.81635,-0.816406 -2.97266,-0.816406 z m -22.83203,2.988281 c 0.64617,0 1.16037,0.195964 1.54297,0.587891 0.3911,0.391927 0.63303,0.94615 0.72656,1.666016 l 0.0391,0.289062 h -4.94921 c 0.0294,-0.779432 0.24819,-1.396441 0.67577,-1.835937 0.46763,-0.471912 1.12313,-0.707032 1.96485,-0.707032 z m 22.83203,0 c 0.64616,0 1.16037,0.195964 1.54297,0.587891 0.39111,0.391927 0.63304,0.94615 0.72656,1.666016 l 0.0391,0.289062 h -4.94922 c 0.0294,-0.779432 0.25015,-1.396441 0.67773,-1.835937 0.46762,-0.471912 1.12118,-0.707032 1.96289,-0.707032 z m -77.781249,0.05859 c 0.65467,0 1.160486,0.212798 1.517578,0.636719 0.365595,0.415922 0.548828,1.003813 0.548828,1.763672 v 1.978515 c 0,0.743861 -0.183233,1.320592 -0.548828,1.728516 -0.357092,0.407924 -0.862908,0.611328 -1.517578,0.611328 -0.416608,0 -0.774689,-0.07459 -1.072266,-0.226562 -0.289075,-0.151972 -0.50907,-0.37221 -0.662109,-0.660157 -0.15304,-0.287946 -0.230469,-0.636998 -0.230469,-1.044922 v -2.794921 c 0,-0.423921 0.07743,-0.784134 0.230469,-1.080079 0.153039,-0.295944 0.373034,-0.519903 0.662109,-0.671874 0.297577,-0.15997 0.655658,-0.240235 1.072266,-0.240235 z m 28.226569,0 c 0.65467,0 1.16048,0.212798 1.51757,0.636719 0.36559,0.415922 0.54883,1.003813 0.54883,1.763672 v 1.978515 c 0,0.743861 -0.18324,1.320592 -0.54883,1.728516 -0.35709,0.407924 -0.8629,0.611328 -1.51757,0.611328 -0.41661,0 -0.77274,-0.07459 -1.07032,-0.226562 -0.28907,-0.151972 -0.51102,-0.37221 -0.66406,-0.660157 -0.15304,-0.287946 -0.22851,-0.636998 -0.22851,-1.044922 v -2.794921 c 0,-0.423921 0.0755,-0.784134 0.22851,-1.080079 0.15304,-0.295944 0.37499,-0.519903 0.66406,-0.671874 0.29758,-0.15997 0.65371,-0.240235 1.07032,-0.240235 z M 69.509766,22.05664 h 3.187499 v 1.150391 c 0,0.42392 -0.22838,0.735584 -0.687499,0.935546 -0.450617,0.199963 -1.144836,0.300782 -2.080078,0.300782 -0.671674,0 -1.172321,-0.09515 -1.503907,-0.28711 -0.331586,-0.199962 -0.498046,-0.504185 -0.498046,-0.912109 0,-0.399926 0.130963,-0.696709 0.394531,-0.888672 0.263569,-0.199962 0.660363,-0.298828 1.1875,-0.298828 z" />
</svg>
